# xmcd CD database file
#
# Track frame offsets:
#	150
#	14506
#	28778
#	43507
#	57861
#	72932
#	87806
#	105910
#	123976
#	142073
#	160781
#	179150
#	192994
#	207603
#	227286
#	247555
#	268346
#	288721
#	302553
#
# Disc length: 4202 seconds
#
# Revision: 0
# Processed by: cddbd v1.5.2PL0 Copyright (c) Steve Scherf et al.
# Submitted via: CDex 1.51
#
DISCID=0e106813
DTITLE=Red Nichols - The Complete Brunswick Recordings - Volume 2
DYEAR=1900
DGENRE=Jazz
TTITLE0=Nobody's Sweetheart 1
TTITLE1=Nobody's Sweetheart 2
TTITLE2=My Gal Sal
TTITLE3=Avalon
TTITLE4=The Japanese Sandman 1
TTITLE5=The Japanese Sandman 2
TTITLE6=Poor Butterfly 1
TTITLE7=Poor Butterfly 2
TTITLE8=Poor Butterfly 3
TTITLE9=Can't Yo' Heah Me Callin' Caroline? 1
TTITLE10=Can't Yo' Heah Me Callin' Caroline? 2
TTITLE11=Panama
TTITLE12=There'll Come A Time
TTITLE13=Dear Old Southland 1
TTITLE14=Dear Old Southland 2
TTITLE15=Limehouse Blues 1
TTITLE16=Limehouse Blues 2
TTITLE17=Whispering
TTITLE18=I Can't Give You Anything But Love
EXTD=
EXTT0=
EXTT1=
EXTT2=
EXTT3=
EXTT4=
EXTT5=
EXTT6=
EXTT7=
EXTT8=
EXTT9=
EXTT10=
EXTT11=
EXTT12=
EXTT13=
EXTT14=
EXTT15=
EXTT16=
EXTT17=
EXTT18=
PLAYORDER=
